<svg xmlns="http://www.w3.org/2000/svg" viewBox="0 0 1600 900">
<defs>
  <radialGradient id="glow" cx="68%" cy="32%" r="65%"><stop offset="0" stop-color="#cdb887" stop-opacity=".20"/><stop offset=".5" stop-color="#cdb887" stop-opacity=".05"/><stop offset="1" stop-color="#0b0d11" stop-opacity="0"/></radialGradient>
  <linearGradient id="fade" x1="0" y1="0" x2="1" y2="1"><stop offset="0" stop-color="#cdb887" stop-opacity=".22"/><stop offset="1" stop-color="#cdb887" stop-opacity=".04"/></linearGradient>
</defs>
<rect width="1600" height="900" fill="#0b0d11"/><rect width="1600" height="900" fill="url(#glow)"/>
<g stroke="#cdb887" fill="none" opacity=".16"><path d="M160 170h610v520H160z" stroke-width="3"/><path d="M210 220h510M210 290h510M210 360h510M210 430h510M210 500h510M210 570h510"/><path d="M310 170v520M450 170v520M590 170v520" opacity=".55"/><circle cx="1170" cy="330" r="165"/><circle cx="1170" cy="330" r="112"/><path d="M1005 330h330M1170 165v330"/><path d="M1060 650l110-240 110 240" stroke-width="5"/></g><circle cx="1170" cy="330" r="30" fill="#cdb887" opacity=".13"/>
<text x="118" y="760" fill="#cdb887" opacity=".20" font-size="70" font-family="Georgia" letter-spacing="3">启蒙时代</text>
<text x="122" y="810" fill="#cdb887" opacity=".13" font-size="22" font-family="Georgia" letter-spacing="6">ENLIGHTENMENT</text>
</svg>