<svg xmlns="http://www.w3.org/2000/svg" viewBox="0 0 1600 900">
<defs>
  <radialGradient id="astroglow" cx="50%" cy="46%" r="54%">
    <stop offset="0" stop-color="#e4c68d" stop-opacity=".18"/>
    <stop offset=".45" stop-color="#c99654" stop-opacity=".05"/>
    <stop offset="1" stop-color="#121217" stop-opacity="0"/>
  </radialGradient>
</defs>
<rect width="1600" height="900" fill="#121217"/>
<rect width="1600" height="900" fill="url(#astroglow)"/>
<g opacity=".20" stroke="#d9bb83" fill="none">
  <circle cx="800" cy="450" r="256" stroke-width="2.1"/>
  <circle cx="800" cy="450" r="202" stroke-width="1.4"/>
  <circle cx="800" cy="450" r="142" stroke-width="1"/>
  <circle cx="800" cy="450" r="83" stroke-width="1"/>
  <path d="M544 450h512M800 194v512" stroke-width="1.1"/>
  <path d="M617 269c112 63 254 63 366 0M617 631c112-63 254-63 366 0" stroke-width="1.7"/>
  <path d="M617 269c-82 90-113 196-92 306M983 269c82 90 113 196 92 306" stroke-width="1.7"/>
</g>
<g opacity=".11" stroke="#d9bb83" fill="none">
  <rect x="146" y="166" width="238" height="118" rx="13" stroke-width="1.3"/>
  <path d="M182 206h168M182 242h130" stroke-width="1.3"/>
  <rect x="1215" y="608" width="240" height="116" rx="13" stroke-width="1.3"/>
  <path d="M1249 648h172M1249 684h124" stroke-width="1.3"/>
</g>
<text x="126" y="786" fill="#ebcf99" opacity=".24" font-size="90" font-family="Georgia">COSMIC STUDY</text>
<text x="130" y="834" fill="#ebcf99" opacity=".16" font-size="20" font-family="Georgia" letter-spacing="6">ASTROLABE · SKY MAP · ORDER OF OBSERVATION</text>
</svg>