<svg xmlns="http://www.w3.org/2000/svg" viewBox="0 0 720 900">
<defs>
  <radialGradient id="dg" cx="50%" cy="30%" r="68%"><stop offset="0" stop-color="#d8c18c" stop-opacity=".20"/><stop offset="1" stop-color="#0b0d11" stop-opacity="0"/></radialGradient>
  <linearGradient id="db" x1="0" y1="0" x2="1" y2="1"><stop offset="0" stop-color="#0b0d11"/><stop offset=".55" stop-color="#15161b"/><stop offset="1" stop-color="#090b0f"/></linearGradient>
</defs>
<rect width="720" height="900" fill="url(#db)"/><rect width="720" height="900" fill="url(#dg)"/>
<rect x="28" y="28" width="664" height="844" rx="20" fill="none" stroke="#d8c18c" stroke-opacity=".22"/>
<rect x="44" y="44" width="632" height="812" rx="16" fill="none" stroke="#fff" stroke-opacity=".035"/>
<text x="72" y="92" fill="#d8c18c" opacity=".92" font-size="17" font-family="Georgia" letter-spacing="4">AEVEMORA DOSSIER</text>
<text x="648" y="92" fill="#d8c18c" opacity=".66" font-size="22" font-family="Georgia" text-anchor="end">MIXED-03</text>
<g stroke="#d8c18c" fill="none" opacity=".24"><path d="M100 625h520M135 585h450M160 250h400M190 220h340" stroke-width="9"/><path d="M205 585V290M300 585V290M395 585V290M490 585V290" stroke-width="14"/><path d="M160 250l200-110 200 110" stroke-width="12"/></g><ellipse cx="360" cy="390" rx="84" ry="104" fill="#d8c18c" opacity=".09"/>
<rect x="70" y="718" width="580" height="112" rx="18" fill="#090b10" fill-opacity=".72" stroke="#d8c18c" stroke-opacity=".16"/>
<text x="96" y="760" fill="#d8c18c" opacity=".72" font-size="13" font-family="Georgia" letter-spacing="3">CURATED CIVILIZATION</text>
<text x="96" y="799" fill="#eee3cf" opacity=".96" font-size="32" font-family="Georgia,serif">希腊与哲思</text>
<text x="98" y="827" fill="#d8c18c" opacity=".52" font-size="13" font-family="Georgia" letter-spacing="3">REASON · DIALOGUE</text>
</svg>